<svg id="Laag_1" data-name="Laag 1" xmlns="http://www.w3.org/2000/svg" viewBox="0 0 612.59 96"><defs><style>.cls-1{fill:#1d1d1b;}</style></defs><path class="cls-1" d="M50,10.53,30.54,47.62V68.84H21V47.62L1.55,10.53h10.9l13.38,27,13.38-27Z"/><path class="cls-1" d="M89.68,25.56a20.32,20.32,0,0,1,8.26,8.1,24.86,24.86,0,0,1,3,12.39,25,25,0,0,1-3,12.47,20.23,20.23,0,0,1-8.26,8.09,24.89,24.89,0,0,1-11.9,2.81,24.64,24.64,0,0,1-11.85-2.81,20.39,20.39,0,0,1-8.26-8.13,24.82,24.82,0,0,1-3-12.43,24.56,24.56,0,0,1,3-12.39,20.56,20.56,0,0,1,8.26-8.1,24.75,24.75,0,0,1,11.85-2.8A25,25,0,0,1,89.68,25.56Zm-18.59,7a12.18,12.18,0,0,0-4.91,5.08,17.33,17.33,0,0,0-1.86,8.38,17.28,17.28,0,0,0,1.86,8.42,12.25,12.25,0,0,0,4.91,5,14.39,14.39,0,0,0,13.38,0,12.21,12.21,0,0,0,4.92-5,17.28,17.28,0,0,0,1.86-8.42,17.33,17.33,0,0,0-1.86-8.38,12.14,12.14,0,0,0-4.92-5.08,14.31,14.31,0,0,0-13.38,0Z"/><path class="cls-1" d="M152,23.33V68.84h-9.5V58.93a14.63,14.63,0,0,1-6,7.81,18.06,18.06,0,0,1-10,2.76q-7.94,0-12.72-5.12t-4.79-14.62V23.33h9.42V48.77q0,6.19,3.13,9.54a11.23,11.23,0,0,0,8.59,3.35,11.71,11.71,0,0,0,9-3.64q3.38-3.63,3.38-10.57V23.33Z"/><path class="cls-1" d="M179.29,25.19a18.79,18.79,0,0,1,9.91-2.6V32.83h-2.81q-6.19,0-9.95,3t-3.76,9.95v23h-9.41V23.33h9.41v8.92A17.62,17.62,0,0,1,179.29,25.19Z"/><path class="cls-1" d="M228.43,43.73,212.24,10.45h47.49A28.07,28.07,0,0,1,280.3,19a28.19,28.19,0,0,1,8.51,20.65,28,28,0,0,1-8.51,20.56,28.07,28.07,0,0,1-20.57,8.59H236.36L261,18.29a6.41,6.41,0,0,0-1.24-.08h-9.49L225.62,68.84h-9.41Zm4.71-9.66,7.68-15.86H225.46Zm35.93-13.13L249.58,61.08h10.15q8.06,0,13.88-6.69a21.67,21.67,0,0,0,5.78-14.7A22.81,22.81,0,0,0,269.07,20.94Z"/><path class="cls-1" d="M308,68.84h-9.42V10.53H308Z"/><path class="cls-1" d="M357.11,68.84l-28.33-43v43h-9.41V10.61h9.41l28.33,43.2V10.61h9.42V68.84Z"/><path class="cls-1" d="M404.68,68.93c-11.39,0-20.31-5.29-25.11-14.38A30.91,30.91,0,0,1,376,39.69C376,28,380.9,19.12,389.65,14a30.34,30.34,0,0,1,15-3.72c14,0,23.54,7.27,26.51,19.08H421.2C418.64,23.09,412.61,19,404.68,19a17.89,17.89,0,0,0-16.51,9.83,22.18,22.18,0,0,0-2.48,10.82c0,9,3.38,15,9.5,18.25a20.18,20.18,0,0,0,10.4,2.56h1.82L398.9,43.4l-3.47-6.93h41V43.4h-7.93l12.39,25.44h-9.41L419.06,43.4H408.48l7.69,15.78.66,1.32h.08L421,68.93Z"/><path class="cls-1" d="M490,68.84h-5.78c-9.75,0-14.78-4.21-14.78-15.19V31.35h-6.53v-8h6.53V12h9.49V23.33h11v8h-11V53.81c0,5.2,1.66,6.86,6.53,6.86H490Z"/><path class="cls-1" d="M531.55,66.61a24.61,24.61,0,0,1-11.9,2.81c-8.84,0-16.1-3.8-20.07-11a24,24,0,0,1-3.05-12.39c0-9.5,4.21-16.69,11.31-20.49a24,24,0,0,1,11.81-2.8c8.84,0,16.19,3.79,20.16,10.9a24.8,24.8,0,0,1,3,12.39C542.78,55.71,538.65,62.81,531.55,66.61ZM513,59.51a14.4,14.4,0,0,0,6.69,1.65,12.77,12.77,0,0,0,11.65-6.69,17.61,17.61,0,0,0,1.82-8.42c0-6.61-2.65-11.24-6.78-13.47a14.1,14.1,0,0,0-6.69-1.65,12.47,12.47,0,0,0-11.56,6.69,16.76,16.76,0,0,0-1.9,8.43C506.19,52.82,508.83,57.28,513,59.51Z"/><path class="cls-1" d="M584.57,66.61a24.54,24.54,0,0,1-11.89,2.81c-8.84,0-16.11-3.8-20.07-11a24,24,0,0,1-3.06-12.39c0-9.5,4.21-16.69,11.32-20.49a24,24,0,0,1,11.81-2.8c8.83,0,16.19,3.79,20.15,10.9a24.8,24.8,0,0,1,3,12.39C595.8,55.71,591.67,62.81,584.57,66.61ZM566,59.51a14.34,14.34,0,0,0,6.69,1.65,12.76,12.76,0,0,0,11.64-6.69,17.61,17.61,0,0,0,1.82-8.42c0-6.61-2.64-11.24-6.77-13.47a14.16,14.16,0,0,0-6.69-1.65,12.48,12.48,0,0,0-11.57,6.69,16.76,16.76,0,0,0-1.9,8.43C559.21,52.82,561.86,57.28,566,59.51Z"/></svg>