<svg viewBox="0 0 667.32 96" xmlns="http://www.w3.org/2000/svg"><g fill="#fff"><path d="m192.41 82.22h3.22a5.76 5.76 0 0 0 4-1.19c.85-.8 1.28-2.17 1.28-4.09v-53.61h9.5v53.67q0 13.47-13.55 13.46h-4.46zm8.8-68.22a4.93 4.93 0 0 1 -1.7-3.88 5.15 5.15 0 0 1 1.7-4 6.21 6.21 0 0 1 4.41-1.57 6.06 6.06 0 0 1 4.38 1.61 5.21 5.21 0 0 1 1.65 4 5 5 0 0 1 -1.65 3.84 6.3 6.3 0 0 1 -4.38 1.49 6.44 6.44 0 0 1 -4.41-1.49z"/><path d="m254.35 25.56a20.2 20.2 0 0 1 8.26 8.1 24.8 24.8 0 0 1 3 12.39 25 25 0 0 1 -3 12.47 20.06 20.06 0 0 1 -8.26 8.09 26.45 26.45 0 0 1 -23.74 0 20.39 20.39 0 0 1 -8.26-8.13 24.84 24.84 0 0 1 -3-12.43 24.57 24.57 0 0 1 3-12.39 20.57 20.57 0 0 1 8.26-8.1 26.58 26.58 0 0 1 23.74 0zm-18.58 7a12 12 0 0 0 -4.91 5.08 17.26 17.26 0 0 0 -1.86 8.41 17.3 17.3 0 0 0 1.86 8.42 12.19 12.19 0 0 0 4.91 5 14.39 14.39 0 0 0 13.38 0 12.27 12.27 0 0 0 4.92-5 17.43 17.43 0 0 0 1.85-8.42 17.53 17.53 0 0 0 -1.85-8.38 12.17 12.17 0 0 0 -4.92-5.08 14.33 14.33 0 0 0 -13.38 0z"/><path d="m316.63 23.33v45.51h-9.5v-9.91a14.64 14.64 0 0 1 -6 7.81 18 18 0 0 1 -10 2.76q-7.94 0-12.72-5.12t-4.81-14.62v-26.43h9.4v25.44q0 6.19 3.14 9.54a11.26 11.26 0 0 0 8.59 3.35 11.68 11.68 0 0 0 9-3.64q3.38-3.63 3.38-10.57v-24.12z"/><path d="m391.71 23.33-12.64 45.51h-10.41l-11.23-35.18-11.43 35.18h-10.29l-12.64-45.51h9.5l8.67 36.84 11.4-36.84h9.91l11.56 36.84 8.68-36.84z"/><path d="m430.36 43.73-16.19-33.28h47.49a28.1 28.1 0 0 1 20.57 8.55 28.18 28.18 0 0 1 8.51 20.65 28 28 0 0 1 -8.51 20.56 28.07 28.07 0 0 1 -20.57 8.59h-23.37l24.61-50.51a6.46 6.46 0 0 0 -1.24-.08h-9.5l-24.61 50.63h-9.42zm4.71-9.66 7.68-15.86h-15.37zm35.93-13.13-19.5 40.14h10.16q8.05 0 13.88-6.69a21.67 21.67 0 0 0 5.78-14.7 22.8 22.8 0 0 0 -10.32-18.75z"/><path d="m509.89 68.84h-9.41v-58.31h9.41z"/><path d="m559 68.84-28.33-43v43h-9.42v-58.23h9.42l28.33 43.2v-43.2h9.41v58.23z"/><path d="m606.61 68.93c-11.4 0-20.32-5.29-25.11-14.38a31 31 0 0 1 -3.5-14.86c0-11.69 4.82-20.57 13.58-25.69a30.26 30.26 0 0 1 14.95-3.72c14 0 23.54 7.27 26.51 19.08h-9.91c-2.56-6.27-8.59-10.36-16.52-10.36a17.89 17.89 0 0 0 -16.52 9.83 22.23 22.23 0 0 0 -2.48 10.82c0 9 3.39 15 9.5 18.25a20.25 20.25 0 0 0 10.41 2.56h1.82l-8.51-17.1-3.47-6.93h41v7h-8l12.39 25.44h-9.42l-12.33-25.47h-10.59l7.68 15.78.66 1.32h.09l4.16 8.43z"/><path d="m57.25 13a27.29 27.29 0 0 1 10.38 10.64 31.62 31.62 0 0 1 3.77 15.48 31.57 31.57 0 0 1 -3.77 15.48 27.56 27.56 0 0 1 -10.38 10.71 28.67 28.67 0 0 1 -14.73 3.86 28.84 28.84 0 0 1 -14.82-3.86 27.77 27.77 0 0 1 -10.41-10.71 31.17 31.17 0 0 1 -3.82-15.48 31.22 31.22 0 0 1 3.82-15.48 27.5 27.5 0 0 1 10.41-10.64 29 29 0 0 1 14.82-3.84 28.84 28.84 0 0 1 14.73 3.84zm-24.77 7.53a17.51 17.51 0 0 0 -6.85 7.39 24.41 24.41 0 0 0 -2.45 11.2 24.45 24.45 0 0 0 2.45 11.21 17.43 17.43 0 0 0 6.85 7.38 19.44 19.44 0 0 0 10 2.58 19.11 19.11 0 0 0 9.92-2.58 17.57 17.57 0 0 0 6.8-7.38 24.45 24.45 0 0 0 2.45-11.21 24.41 24.41 0 0 0 -2.45-11.2 17.66 17.66 0 0 0 -6.8-7.39 19.2 19.2 0 0 0 -9.88-2.53 19.53 19.53 0 0 0 -10.04 2.53z"/><path d="m113.81 25a20.27 20.27 0 0 1 8.3 8.14 24.89 24.89 0 0 1 3 12.45 25.06 25.06 0 0 1 -3 12.53 20.24 20.24 0 0 1 -8.3 8.13 26.64 26.64 0 0 1 -23.86 0 20.52 20.52 0 0 1 -8.3-8.17 24.92 24.92 0 0 1 -3-12.49 24.69 24.69 0 0 1 3-12.45 20.63 20.63 0 0 1 8.35-8.14 26.64 26.64 0 0 1 23.86 0zm-18.67 7.07a12.23 12.23 0 0 0 -4.94 5.1 17.56 17.56 0 0 0 -1.87 8.43 17.47 17.47 0 0 0 1.87 8.46 12.24 12.24 0 0 0 4.94 5.06 14.38 14.38 0 0 0 13.45 0 12.22 12.22 0 0 0 4.93-5.06 17.36 17.36 0 0 0 1.87-8.46 17.45 17.45 0 0 0 -1.87-8.43 12.21 12.21 0 0 0 -4.93-5.1 14.45 14.45 0 0 0 -13.45 0z"/><path d="m160.13 68.5-16.44-20.33v20.33h-9.46v-61.42h9.46v35.2l16.31-19.51h11.37l-19.96 22.74 20.42 23z"/></g></svg>
