<svg viewBox="0 0 612.59 96" xmlns="http://www.w3.org/2000/svg"><g fill="#fff"><path d="m50 10.53-19.46 37.09v21.22h-9.54v-21.22l-19.45-37.09h10.9l13.38 27 13.38-27z"/><path d="m89.68 25.56a20.32 20.32 0 0 1 8.26 8.1 24.86 24.86 0 0 1 3 12.39 25 25 0 0 1 -3 12.47 20.23 20.23 0 0 1 -8.26 8.09 24.89 24.89 0 0 1 -11.9 2.81 24.64 24.64 0 0 1 -11.85-2.81 20.39 20.39 0 0 1 -8.26-8.13 24.82 24.82 0 0 1 -3-12.43 24.56 24.56 0 0 1 3-12.39 20.56 20.56 0 0 1 8.26-8.1 24.75 24.75 0 0 1 11.85-2.8 25 25 0 0 1 11.9 2.8zm-18.59 7a12.18 12.18 0 0 0 -4.91 5.08 17.33 17.33 0 0 0 -1.86 8.38 17.28 17.28 0 0 0 1.86 8.42 12.25 12.25 0 0 0 4.91 5 14.39 14.39 0 0 0 13.38 0 12.21 12.21 0 0 0 4.92-5 17.28 17.28 0 0 0 1.86-8.42 17.33 17.33 0 0 0 -1.86-8.38 12.14 12.14 0 0 0 -4.92-5.08 14.31 14.31 0 0 0 -13.38 0z"/><path d="m152 23.33v45.51h-9.5v-9.91a14.63 14.63 0 0 1 -6 7.81 18.06 18.06 0 0 1 -10 2.76q-7.94 0-12.72-5.12t-4.79-14.62v-26.43h9.42v25.44q0 6.19 3.13 9.54a11.23 11.23 0 0 0 8.59 3.35 11.71 11.71 0 0 0 9-3.64q3.38-3.63 3.38-10.57v-24.12z"/><path d="m179.29 25.19a18.79 18.79 0 0 1 9.91-2.6v10.24h-2.81q-6.19 0-9.95 3t-3.76 9.95v23h-9.41v-45.45h9.41v8.92a17.62 17.62 0 0 1 6.61-7.06z"/><path d="m228.43 43.73-16.19-33.28h47.49a28.07 28.07 0 0 1 20.57 8.55 28.19 28.19 0 0 1 8.51 20.65 28 28 0 0 1 -8.51 20.56 28.07 28.07 0 0 1 -20.57 8.59h-23.37l24.64-50.51a6.41 6.41 0 0 0 -1.24-.08h-9.49l-24.65 50.63h-9.41zm4.71-9.66 7.68-15.86h-15.36zm35.93-13.13-19.49 40.14h10.15q8.06 0 13.88-6.69a21.67 21.67 0 0 0 5.78-14.7 22.81 22.81 0 0 0 -10.32-18.75z"/><path d="m308 68.84h-9.42v-58.31h9.42z"/><path d="m357.11 68.84-28.33-43v43h-9.41v-58.23h9.41l28.33 43.2v-43.2h9.42v58.23z"/><path d="m404.68 68.93c-11.39 0-20.31-5.29-25.11-14.38a30.91 30.91 0 0 1 -3.57-14.86c0-11.69 4.9-20.57 13.65-25.69a30.34 30.34 0 0 1 15-3.72c14 0 23.54 7.27 26.51 19.08h-9.96c-2.56-6.27-8.59-10.36-16.52-10.36a17.89 17.89 0 0 0 -16.51 9.83 22.18 22.18 0 0 0 -2.48 10.82c0 9 3.38 15 9.5 18.25a20.18 20.18 0 0 0 10.4 2.56h1.82l-8.51-17.06-3.47-6.93h41v6.93h-7.93l12.39 25.44h-9.41l-12.42-25.44h-10.58l7.69 15.78.66 1.32h.08l4.09 8.43z"/><path d="m490 68.84h-5.78c-9.75 0-14.78-4.21-14.78-15.19v-22.3h-6.53v-8h6.53v-11.35h9.49v11.33h11v8h-11v22.48c0 5.2 1.66 6.86 6.53 6.86h4.54z"/><path d="m531.55 66.61a24.61 24.61 0 0 1 -11.9 2.81c-8.84 0-16.1-3.8-20.07-11a24 24 0 0 1 -3.05-12.39c0-9.5 4.21-16.69 11.31-20.49a24 24 0 0 1 11.81-2.8c8.84 0 16.19 3.79 20.16 10.9a24.8 24.8 0 0 1 3 12.39c-.03 9.68-4.16 16.78-11.26 20.58zm-18.55-7.1a14.4 14.4 0 0 0 6.69 1.65 12.77 12.77 0 0 0 11.65-6.69 17.61 17.61 0 0 0 1.82-8.42c0-6.61-2.65-11.24-6.78-13.47a14.1 14.1 0 0 0 -6.69-1.65 12.47 12.47 0 0 0 -11.56 6.69 16.76 16.76 0 0 0 -1.9 8.43c-.04 6.77 2.6 11.23 6.77 13.46z"/><path d="m584.57 66.61a24.54 24.54 0 0 1 -11.89 2.81c-8.84 0-16.11-3.8-20.07-11a24 24 0 0 1 -3.06-12.39c0-9.5 4.21-16.69 11.32-20.49a24 24 0 0 1 11.81-2.8c8.83 0 16.19 3.79 20.15 10.9a24.8 24.8 0 0 1 3 12.39c-.03 9.68-4.16 16.78-11.26 20.58zm-18.57-7.1a14.34 14.34 0 0 0 6.69 1.65 12.76 12.76 0 0 0 11.64-6.69 17.61 17.61 0 0 0 1.82-8.42c0-6.61-2.64-11.24-6.77-13.47a14.16 14.16 0 0 0 -6.69-1.65 12.48 12.48 0 0 0 -11.57 6.69 16.76 16.76 0 0 0 -1.9 8.43c-.01 6.77 2.64 11.23 6.78 13.46z"/></g></svg>