<svg id="Laag_1" data-name="Laag 1" xmlns="http://www.w3.org/2000/svg" viewBox="0 0 653.85 96"><defs><style>.cls-1{fill:#1d1d1b;}</style></defs><path class="cls-1" d="M178.94,82.22h3.22a5.76,5.76,0,0,0,4-1.19c.85-.8,1.28-2.17,1.28-4.09V23.33h9.5V77q0,13.47-13.55,13.46h-4.46ZM187.74,14a4.93,4.93,0,0,1-1.7-3.88,5.15,5.15,0,0,1,1.7-4,6.21,6.21,0,0,1,4.41-1.57,6.06,6.06,0,0,1,4.38,1.61,5.17,5.17,0,0,1,1.65,4A5,5,0,0,1,196.53,14a6.3,6.3,0,0,1-4.38,1.49A6.44,6.44,0,0,1,187.74,14Z"/><path class="cls-1" d="M240.88,25.56a20.14,20.14,0,0,1,8.26,8.1,24.69,24.69,0,0,1,3,12.39,24.86,24.86,0,0,1-3,12.47,20.06,20.06,0,0,1-8.26,8.09,26.45,26.45,0,0,1-23.74,0,20.39,20.39,0,0,1-8.26-8.13,24.84,24.84,0,0,1-3-12.43,24.57,24.57,0,0,1,3-12.39,20.57,20.57,0,0,1,8.26-8.1A26.58,26.58,0,0,1,240.88,25.56Zm-18.58,7a12.15,12.15,0,0,0-4.91,5.08,17.26,17.26,0,0,0-1.86,8.41,17.3,17.3,0,0,0,1.86,8.42,12.19,12.19,0,0,0,4.91,5,14.39,14.39,0,0,0,13.38,0,12.15,12.15,0,0,0,4.92-5,17.32,17.32,0,0,0,1.85-8.42,17.41,17.41,0,0,0-1.85-8.38,12.17,12.17,0,0,0-4.92-5.08,14.33,14.33,0,0,0-13.38,0Z"/><path class="cls-1" d="M303.16,23.33V68.84h-9.5V58.93a14.64,14.64,0,0,1-6,7.81,18,18,0,0,1-10,2.76q-7.94,0-12.72-5.12t-4.81-14.62V23.33h9.4V48.77q0,6.19,3.14,9.54a11.26,11.26,0,0,0,8.59,3.35,11.68,11.68,0,0,0,9-3.64q3.39-3.63,3.38-10.57V23.33Z"/><path class="cls-1" d="M378.24,23.33,365.6,68.84H355.19L344,33.66,332.53,68.84H322.24L309.6,23.33h9.5l8.67,36.84,11.4-36.84h9.91l11.56,36.84,8.68-36.84Z"/><path class="cls-1" d="M416.89,43.73,400.7,10.45h47.49A28.08,28.08,0,0,1,468.76,19a28.18,28.18,0,0,1,8.51,20.65,28,28,0,0,1-8.51,20.56,28.07,28.07,0,0,1-20.57,8.59H424.82l24.61-50.51a6.41,6.41,0,0,0-1.24-.08h-9.5L414.08,68.84h-9.42Zm4.71-9.66,7.68-15.86H413.91Zm35.93-13.13L438,61.08h10.16q8.06,0,13.88-6.69a21.67,21.67,0,0,0,5.78-14.7A22.8,22.8,0,0,0,457.53,20.94Z"/><path class="cls-1" d="M496.42,68.84H487V10.53h9.41Z"/><path class="cls-1" d="M545.53,68.84l-28.33-43v43h-9.42V10.61h9.42l28.33,43.2V10.61h9.41V68.84Z"/><path class="cls-1" d="M593.14,68.93c-11.4,0-20.32-5.29-25.11-14.38a31,31,0,0,1-3.5-14.86c0-11.69,4.82-20.57,13.58-25.69a30.26,30.26,0,0,1,14.95-3.72c14,0,23.54,7.27,26.51,19.08h-9.91C607.1,23.09,601.07,19,593.14,19a17.89,17.89,0,0,0-16.52,9.83,22.34,22.34,0,0,0-2.48,10.82c0,9,3.39,15,9.5,18.25a20.28,20.28,0,0,0,10.41,2.56h1.82l-8.51-17.1-3.47-6.93h41v7h-8l12.39,25.44H619.9L607.53,43.4H596.94l7.68,15.78.66,1.32h.09l4.16,8.43Z"/><path d="M43.78,13A27.29,27.29,0,0,1,54.16,23.64a31.51,31.51,0,0,1,3.77,15.48A31.46,31.46,0,0,1,54.16,54.6,27.56,27.56,0,0,1,43.78,65.31a28.67,28.67,0,0,1-14.73,3.86,28.78,28.78,0,0,1-14.81-3.86A27.79,27.79,0,0,1,3.82,54.6,31.17,31.17,0,0,1,0,39.12,31.22,31.22,0,0,1,3.82,23.64,27.53,27.53,0,0,1,14.24,13,29,29,0,0,1,29.05,9.16,28.84,28.84,0,0,1,43.78,13ZM19,20.53a17.51,17.51,0,0,0-6.85,7.39,24.41,24.41,0,0,0-2.45,11.2,24.45,24.45,0,0,0,2.45,11.21A17.43,17.43,0,0,0,19,57.71a19.47,19.47,0,0,0,10,2.58A19.11,19.11,0,0,0,39,57.71a17.57,17.57,0,0,0,6.8-7.38,24.33,24.33,0,0,0,2.45-11.21,24.29,24.29,0,0,0-2.45-11.2A17.66,17.66,0,0,0,39,20.53,19.2,19.2,0,0,0,29.05,18,19.56,19.56,0,0,0,19,20.53Z"/><path d="M100.35,25a20.33,20.33,0,0,1,8.3,8.14,25,25,0,0,1,3,12.45,25.17,25.17,0,0,1-3,12.53,20.3,20.3,0,0,1-8.3,8.13,26.67,26.67,0,0,1-23.87,0,20.52,20.52,0,0,1-8.3-8.17,24.92,24.92,0,0,1-3-12.49,24.69,24.69,0,0,1,3-12.45A20.63,20.63,0,0,1,76.48,25a26.67,26.67,0,0,1,23.87,0ZM81.67,32.07a12.23,12.23,0,0,0-4.94,5.1,17.56,17.56,0,0,0-1.86,8.43,17.47,17.47,0,0,0,1.86,8.46,12.24,12.24,0,0,0,4.94,5.06,14.38,14.38,0,0,0,13.45,0,12.3,12.3,0,0,0,4.94-5.06,17.47,17.47,0,0,0,1.86-8.46,17.56,17.56,0,0,0-1.86-8.43,12.29,12.29,0,0,0-4.94-5.1,14.45,14.45,0,0,0-13.45,0Z"/><path d="M146.66,68.5,130.23,48.17V68.5h-9.46V7.08h9.46v35.2L146.5,22.77h11.37L138,45.51l20.41,23Z"/></svg>